<svg width="137" height="137" viewBox="0 0 137 137" fill="none" xmlns="http://www.w3.org/2000/svg">
<circle cx="68.5" cy="68.5" r="67" stroke="#EAE7E7" stroke-width="3"/>
<mask id="path-2-inside-1" fill="white">
<path d="M68.5 0C55.2963 -1.57453e-07 42.3739 3.81603 31.2883 10.9888C20.2028 18.1615 11.4264 28.3852 6.01566 40.4294C0.604915 52.4736 -1.20963 65.8249 0.790446 78.8762C2.79052 91.9276 8.51996 104.123 17.2891 113.994C26.0583 123.865 37.4935 130.992 50.2183 134.515C62.9431 138.039 76.4152 137.81 89.013 133.856C101.611 129.902 112.797 122.392 121.226 112.229C129.655 102.065 134.967 89.6826 136.523 76.5708L133.692 76.235C132.201 88.8011 127.11 100.669 119.032 110.409C110.954 120.149 100.233 127.347 88.1594 131.137C76.0858 134.926 63.1744 135.146 50.9791 131.768C38.7838 128.391 27.8244 121.561 19.4201 112.101C11.0159 102.64 5.52483 90.9527 3.60799 78.4445C1.69114 65.9362 3.43018 53.1405 8.61577 41.5975C13.8014 30.0545 22.2125 20.2562 32.8368 13.3819C43.4611 6.50767 55.8457 2.85043 68.5 2.85043V0Z"/>
</mask>
<path d="M68.5 0C55.2963 -1.57453e-07 42.3739 3.81603 31.2883 10.9888C20.2028 18.1615 11.4264 28.3852 6.01566 40.4294C0.604915 52.4736 -1.20963 65.8249 0.790446 78.8762C2.79052 91.9276 8.51996 104.123 17.2891 113.994C26.0583 123.865 37.4935 130.992 50.2183 134.515C62.9431 138.039 76.4152 137.81 89.013 133.856C101.611 129.902 112.797 122.392 121.226 112.229C129.655 102.065 134.967 89.6826 136.523 76.5708L133.692 76.235C132.201 88.8011 127.11 100.669 119.032 110.409C110.954 120.149 100.233 127.347 88.1594 131.137C76.0858 134.926 63.1744 135.146 50.9791 131.768C38.7838 128.391 27.8244 121.561 19.4201 112.101C11.0159 102.64 5.52483 90.9527 3.60799 78.4445C1.69114 65.9362 3.43018 53.1405 8.61577 41.5975C13.8014 30.0545 22.2125 20.2562 32.8368 13.3819C43.4611 6.50767 55.8457 2.85043 68.5 2.85043V0Z" stroke="#0085FF" stroke-width="6" mask="url(#path-2-inside-1)"/>
</svg>

